<svg width="62" height="62" viewBox="0 0 62 62" fill="none" xmlns="http://www.w3.org/2000/svg">
<circle cx="31" cy="31" r="31" fill="#F9FBFC"/>
<path d="M45.9932 28.268C45.9966 28.2483 45.9985 28.229 45.9995 28.2088C46.0005 28.1852 46 28.1626 45.9981 28.139C45.9961 28.1187 45.9932 28.0995 45.9884 28.0797C45.9831 28.0566 45.9758 28.0345 45.9671 28.0123C45.9628 28.0008 45.9618 27.9887 45.9565 27.9777C45.9526 27.9695 45.9459 27.9632 45.9415 27.955C45.9372 27.9469 45.9352 27.9382 45.9304 27.93L41.0959 20.2263C41.0737 20.1911 41.0476 20.1594 41.0181 20.1314C41.0176 20.131 41.0171 20.131 41.0166 20.1305C40.9751 20.0915 40.9257 20.0636 40.873 20.0414C40.8663 20.0385 40.8619 20.0327 40.8547 20.0299C40.8494 20.0279 40.8436 20.0289 40.8382 20.0274C40.7894 20.0111 40.7391 20 40.6864 20H22.3155C22.2632 20 22.2134 20.0111 22.1656 20.027C22.1603 20.0284 22.155 20.0274 22.1501 20.0294C22.1429 20.0318 22.1385 20.0376 22.1317 20.0404C22.0815 20.0611 22.0341 20.0881 21.993 20.1247C21.9906 20.1271 21.9872 20.1286 21.9848 20.1305C21.9548 20.1584 21.9282 20.1907 21.906 20.2258L17.0715 27.9295C17.0667 27.9372 17.0647 27.9464 17.0604 27.9546C17.056 27.9627 17.0493 27.969 17.0454 27.9772C17.0401 27.9883 17.0391 28.0003 17.0343 28.0119C17.0256 28.034 17.0183 28.0561 17.013 28.0793C17.0087 28.099 17.0053 28.1187 17.0033 28.139C17 28.1626 16.9995 28.1857 17.0004 28.2088C17.0014 28.229 17.0033 28.2483 17.0067 28.268C17.0106 28.2911 17.0169 28.3137 17.0246 28.3364C17.0309 28.3551 17.0377 28.3734 17.0464 28.3917C17.0507 28.4004 17.0522 28.41 17.057 28.4187C17.0647 28.4327 17.0763 28.4433 17.085 28.4563C17.0918 28.4664 17.0957 28.4774 17.1039 28.4871L31.1185 45.8137C31.1195 45.8151 31.1205 45.8161 31.1214 45.817L31.1239 45.8204C31.1253 45.8223 31.1277 45.8228 31.1292 45.8247C31.1688 45.8724 31.2181 45.9085 31.2718 45.9374C31.2863 45.9451 31.2998 45.9519 31.3148 45.9581C31.3733 45.9827 31.4352 46 31.5 46C31.5551 46 31.6107 45.9904 31.6658 45.9706C31.674 45.9677 31.6793 45.961 31.6876 45.9576C31.7122 45.9475 31.7315 45.9311 31.7538 45.9172C31.7905 45.8941 31.8249 45.87 31.8534 45.8387C31.8601 45.8315 31.8703 45.8281 31.8766 45.8204L45.8965 28.4871C45.9043 28.4774 45.9081 28.4659 45.9154 28.4563C45.9246 28.4433 45.9357 28.4327 45.9434 28.4187C45.9483 28.41 45.9497 28.4004 45.9541 28.3917C45.9628 28.3734 45.9695 28.3556 45.9758 28.3364C45.9826 28.3137 45.9894 28.2916 45.9932 28.268ZM32.5162 20.9634H39.9898L37.6402 27.2444L32.5162 20.9634ZM36.7691 27.7042H26.2314L31.5 21.2461L36.7691 27.7042ZM25.3259 27.2863L23.0058 20.9634H30.4843L25.3259 27.2863ZM37.108 28.6671L31.4154 43.8849L25.832 28.6671H37.108ZM40.7957 21.5667L44.6473 27.7047H38.4998L40.7957 21.5667ZM22.1999 21.573L24.4494 27.7042H18.3526L22.1999 21.573ZM24.8028 28.6671L30.0429 42.9498L18.4904 28.6671H24.8028ZM32.6588 43.3186L38.1396 28.6671H44.5095L32.6588 43.3186Z" fill="#55BC7E"/>
</svg>
