<svg width="61" height="74" viewBox="0 0 61 74" fill="none" xmlns="http://www.w3.org/2000/svg">
<path fill-rule="evenodd" clip-rule="evenodd" d="M52.2021 52.1449C57.5871 46.6518 60.9075 39.1273 60.9075 30.8273C60.9075 14.0082 47.2729 0.373535 30.4538 0.373535C13.6346 0.373535 0 14.0082 0 30.8273C0 39.8334 3.90937 47.9264 10.1237 53.5019L30.4538 74L52.3088 52.1449H52.2021Z" fill="url(#paint0_linear_1_2156)"/>
<path d="M29.3827 29.1769C29.5575 29.3816 29.8637 29.4093 30.0726 29.2395L32.6381 27.1523C32.7778 27.0411 32.8469 26.8635 32.8193 26.6873C32.7916 26.5111 32.6715 26.3631 32.5045 26.3003C32.3377 26.2372 32.1495 26.269 32.0126 26.3832L29.8225 28.165L29.0352 27.243C28.9207 27.1064 28.7417 27.0419 28.5663 27.0737C28.3912 27.1058 28.2463 27.2292 28.1874 27.3974C28.1284 27.5656 28.1641 27.7523 28.2811 27.8867L29.3827 29.1769Z" fill="white"/>
<path d="M30.4916 33.2641C33.5033 33.2641 35.9446 30.8229 35.9446 27.8112C35.9446 24.7998 33.5033 22.3582 30.4916 22.3582C27.4802 22.3582 25.0387 24.7998 25.0387 27.8112C25.0423 30.8215 27.4816 33.2608 30.4916 33.2641ZM30.4916 23.3497C32.9556 23.3497 34.9531 25.3472 34.9531 27.8112C34.9531 30.2754 32.9556 32.2727 30.4916 32.2727C28.0277 32.2727 26.0301 30.2754 26.0301 27.8112C26.0329 25.3483 28.0288 23.3527 30.4916 23.3497Z" fill="white"/>
<path d="M44.2424 27.5188L39.6147 24.6629C39.5978 24.6527 39.5807 24.6433 39.563 24.6352L39.4902 24.6015V23.3951C39.4902 23.2728 39.4451 23.155 39.3635 23.064L33.3061 16.3111C33.2984 16.3026 33.2901 16.2945 33.2818 16.2865C33.1886 16.1889 33.0594 16.1338 32.9244 16.1338C32.9058 16.1338 32.887 16.1349 32.8685 16.1371L32.8599 16.1363C32.8433 16.1346 32.827 16.1338 32.8104 16.1338H24.2442C22.7308 16.1355 21.5042 17.3621 21.5026 18.8755V24.6388L16.752 27.5177C16.1854 27.8666 15.8394 28.4837 15.8372 29.1493V42.9275C15.8391 44.9388 17.469 46.5688 19.4804 46.571H41.5124C43.5238 46.5688 45.1537 44.9388 45.1556 42.9275V29.1493C45.1534 28.4846 44.8082 27.868 44.2424 27.5188ZM43.7235 28.3637C43.9962 28.5316 44.163 28.8287 44.1642 29.1493V29.9023L39.4902 32.7588V25.7512L43.7235 28.3637ZM33.4201 17.9231L37.26 22.2039H35.1703C34.2041 22.2028 33.4212 21.4197 33.4201 20.4534V17.9231ZM24.2442 17.125H32.4286V20.4534C32.4303 21.9669 33.6569 23.1934 35.1703 23.1954H38.1494L38.4988 23.5849V33.3646L30.4964 38.2549L22.494 33.3646V18.8755C22.4948 17.9092 23.278 17.1261 24.2442 17.125ZM17.2676 28.3645L21.5026 25.7979V32.7588L16.8286 29.9023V29.1493C16.8294 28.8295 16.9957 28.5327 17.2676 28.3645ZM41.5124 45.5795H19.4804C18.0165 45.5779 16.83 44.3914 16.8286 42.9275V31.0641L21.6566 34.015C21.7078 34.0637 21.7684 34.1007 21.8351 34.124L30.2377 39.2588C30.3965 39.3559 30.5962 39.3559 30.7548 39.2588L39.1577 34.1237C39.2244 34.1004 39.2849 34.0634 39.3361 34.0147L44.1642 31.0641V42.9275C44.1628 44.3914 42.9763 45.5779 41.5124 45.5795Z" fill="white"/>
<defs>
<linearGradient id="paint0_linear_1_2156" x1="30.4538" y1="0.373535" x2="30.4538" y2="74" gradientUnits="userSpaceOnUse">
<stop stop-color="#55BC7E"/>
<stop offset="1" stop-color="#87E7AD"/>
</linearGradient>
</defs>
</svg>
