<svg width="62" height="62" viewBox="0 0 62 62" fill="none" xmlns="http://www.w3.org/2000/svg">
<circle cx="31" cy="31" r="31" fill="#F9FBFC"/>
<path d="M39.8483 39.7853C41.8069 37.578 43 34.6763 43 31.5C43 28.1953 41.7086 25.1884 39.6069 22.9509V22.9504C39.6052 22.9478 39.6026 22.947 39.6013 22.9448C37.4121 20.6177 34.3448 19.128 30.9332 19.0112L30.9328 19.0108L30.6892 19.0043C30.6263 19.0022 30.5634 19 30.5 19C30.4366 19 30.3737 19.0022 30.3108 19.0043L30.0681 19.0108L30.0677 19.0112C26.656 19.128 23.5888 20.6177 21.3996 22.9448C21.3978 22.947 21.3953 22.9478 21.394 22.9504C21.394 22.9504 21.394 22.9509 21.3935 22.9513C19.2914 25.1884 18 28.1953 18 31.5C18 34.6763 19.1931 37.578 21.1517 39.7853C21.1543 39.7892 21.1543 39.7935 21.1573 39.7974C21.1651 39.8082 21.1763 39.8134 21.1845 39.8233C23.3853 42.2836 26.5431 43.8685 30.0672 43.9892L30.0677 43.9897L30.3103 43.9961C30.3737 43.9978 30.4366 44 30.5 44C30.5634 44 30.6263 43.9978 30.6892 43.9957L30.9319 43.9892L30.9323 43.9888C34.4603 43.8677 37.6216 42.2797 39.8224 39.8142C39.828 39.8069 39.8371 39.8047 39.8422 39.797C39.8457 39.7935 39.8457 39.7892 39.8483 39.7853ZM18.8728 31.931H24.0466C24.0953 33.7582 24.4522 35.5336 25.0875 37.197C23.8616 37.6405 22.6897 38.2353 21.5914 38.9776C19.9763 37.0565 18.9711 34.6078 18.8728 31.931ZM21.8267 23.7513C22.8991 24.4487 24.0409 25.0073 25.2319 25.4246C24.5026 27.1948 24.0991 29.1034 24.0466 31.069H18.8728C18.9759 28.2642 20.0741 25.7103 21.8267 23.7513ZM42.1272 31.069H36.9534C36.9009 29.1034 36.4974 27.1948 35.7681 25.4246C36.9591 25.0073 38.1009 24.4487 39.1733 23.7513C40.9259 25.7103 42.0241 28.2642 42.1272 31.069ZM30.069 25.4496C28.8228 25.4142 27.5996 25.2284 26.4177 24.8966C27.2914 23.1043 28.525 21.4866 30.069 20.1397V25.4496ZM30.069 26.3116V31.069H24.9086C24.9616 29.1948 25.3547 27.3772 26.0578 25.6918C27.3534 26.0672 28.6987 26.275 30.069 26.3116ZM30.931 26.3116C32.3013 26.275 33.6466 26.0677 34.9427 25.6918C35.6457 27.3772 36.0388 29.1948 36.0918 31.069H30.931V26.3116ZM30.931 25.4496V20.1397C32.475 21.4866 33.7086 23.1043 34.5823 24.8966C33.4004 25.2284 32.1772 25.4142 30.931 25.4496ZM35.4177 24.6345C34.5897 22.8996 33.4405 21.319 32.0177 19.9642C34.5418 20.2944 36.8129 21.4358 38.5621 23.1185C37.569 23.7487 36.5155 24.2556 35.4177 24.6345ZM25.5823 24.6345C24.4845 24.2556 23.431 23.7487 22.4384 23.1185C24.1871 21.4358 26.4586 20.2944 28.9828 19.9642C27.5595 21.319 26.4103 22.8996 25.5823 24.6345ZM24.9086 31.931H30.069V36.2578C28.6435 36.2957 27.247 36.5181 25.9047 36.922C25.2983 35.3465 24.9573 33.6634 24.9086 31.931ZM30.069 37.1198V42.8603C28.4164 41.4185 27.1207 39.6668 26.2397 37.7237C27.4754 37.3595 28.7591 37.1569 30.069 37.1198ZM30.931 42.8603V37.1198C32.2409 37.1565 33.5246 37.3595 34.7603 37.7233C33.8793 39.6668 32.5836 41.4185 30.931 42.8603ZM30.931 36.2578V31.931H36.0914C36.0427 33.6634 35.7017 35.3466 35.0948 36.9224C33.753 36.5181 32.3565 36.2957 30.931 36.2578ZM36.9534 31.931H42.1272C42.0289 34.6078 41.0241 37.0565 39.4086 38.9776C38.3103 38.2353 37.1384 37.6405 35.9125 37.197C36.5483 35.5336 36.9047 33.7582 36.9534 31.931ZM22.1772 39.6233C23.197 38.9457 24.2828 38.4009 25.4172 37.9935C26.2556 39.8728 27.4591 41.5853 28.9823 43.0358C26.331 42.6888 23.9582 41.4474 22.1772 39.6233ZM32.0177 43.0358C33.5409 41.5858 34.7444 39.8733 35.5828 37.9935C36.7172 38.4009 37.8026 38.9457 38.8228 39.6233C37.0418 41.4474 34.669 42.6888 32.0177 43.0358Z" fill="#55BC7E"/>
</svg>
