<svg width="62" height="62" viewBox="0 0 62 62" fill="none" xmlns="http://www.w3.org/2000/svg">
<circle cx="31" cy="31" r="31" fill="#F9FBFC"/>
<path d="M38.9445 31.5333V27.3361C38.9646 24.1362 36.8128 22.0138 34.9639 21.1687C34.4342 20.9265 33.8882 20.7398 33.3333 20.6012V20.3333C33.3333 19.0467 32.2866 18 31 18C29.7134 18 28.6667 19.0467 28.6667 20.3333V20.6418C28.1669 20.7767 27.6755 20.9526 27.1985 21.1729C25.1555 22.1146 23.0853 24.3845 23.0667 27.3333V31.5333C23.0667 34.5144 22.0139 37.0722 19.9377 39.1358C19.814 39.259 19.7692 39.4405 19.8215 39.6071C19.8737 39.7737 20.0151 39.8969 20.1873 39.9268L24.6165 40.6917C25.4415 40.834 26.2013 40.9507 26.9241 41.0468C27.7385 42.6428 29.3377 43.6671 31.0849 43.6671C32.8326 43.6671 34.4323 42.6423 35.2462 41.0454C35.9663 40.9497 36.7223 40.8335 37.5427 40.6917L41.9713 39.9268C42.1435 39.8974 42.2845 39.7737 42.3372 39.6071C42.3899 39.441 42.3451 39.259 42.221 39.1358C40.0473 36.9747 38.9445 34.4169 38.9445 31.5333ZM29.6 20.3333C29.6 19.5615 30.2281 18.9333 31 18.9333C31.7719 18.9333 32.4 19.5615 32.4 20.3333V20.4183C31.4699 20.2848 30.5263 20.2904 29.6 20.4402V20.3333ZM31.0854 42.7333C29.9038 42.7333 28.7997 42.1463 28.0908 41.1863C29.1338 41.2937 30.1073 41.3478 31.0803 41.3478C32.057 41.3478 33.0337 41.2937 34.0809 41.1849C33.3716 42.1458 32.267 42.7333 31.0854 42.7333ZM37.3845 39.7714C36.4889 39.9259 35.6681 40.0514 34.8925 40.1503C34.8915 40.1503 34.8906 40.1503 34.8892 40.1503C34.5471 40.1937 34.2149 40.2315 33.8896 40.2642C33.8868 40.2642 33.8845 40.2647 33.8817 40.2647C33.5835 40.2945 33.2923 40.3188 33.0039 40.3393C32.9497 40.3431 32.8956 40.3468 32.8419 40.3501C32.5923 40.3664 32.3454 40.3795 32.0999 40.3888C32.05 40.3907 31.9996 40.3935 31.9497 40.3949C31.3691 40.4145 30.7965 40.4145 30.2165 40.3953C30.1647 40.3935 30.1124 40.3907 30.0606 40.3888C29.8193 40.379 29.5762 40.3669 29.3303 40.3505C29.2719 40.3468 29.2136 40.3431 29.1548 40.3389C28.8753 40.3188 28.5925 40.2955 28.3036 40.2665C28.2929 40.2656 28.2826 40.2647 28.2719 40.2637C27.9489 40.2315 27.6195 40.1937 27.2807 40.1508C27.2793 40.1508 27.2779 40.1508 27.2765 40.1508C26.4981 40.0523 25.6739 39.9259 24.7747 39.7709L21.2 39.154C23.0587 37.0288 24 34.4696 24 31.5333V27.3361C24.0159 24.7998 25.8144 22.8389 27.5891 22.0203C28.1169 21.7772 28.6643 21.5957 29.2211 21.4683C29.2257 21.4673 29.2309 21.4678 29.2355 21.4669C30.3859 21.2083 31.6095 21.1967 32.7729 21.4351C32.7789 21.4365 32.785 21.4337 32.7911 21.4347C33.3996 21.5616 33.9988 21.7539 34.5761 22.0175C36.2976 22.8048 38.0275 24.7527 38.0112 27.3338V31.5338C38.0112 34.3492 39.0262 36.9672 40.9573 39.1549L37.3845 39.7714Z" fill="#55BC7E"/>
<path d="M33.9946 23.2912C32.1863 22.4648 29.9719 22.4638 28.1757 23.2922C27.1514 23.7644 25.414 25.1462 25.4 27.3307C25.3986 27.5883 25.6058 27.7983 25.8639 27.8002C25.8648 27.8002 25.8657 27.8002 25.8667 27.8002C26.1229 27.8002 26.3319 27.5934 26.3333 27.3363C26.3441 25.6204 27.7422 24.52 28.5663 24.1396C30.1203 23.4224 32.0411 23.4242 33.6059 24.1396C33.8406 24.247 34.1173 24.1438 34.2247 23.9096C34.332 23.6748 34.2284 23.3981 33.9946 23.2912Z" fill="#55BC7E"/>
<path d="M19.2409 27.4701C19.0585 27.2876 18.7635 27.2876 18.5811 27.4701C17.5614 28.4898 17 29.8468 17 31.2921C17 32.7374 17.5614 34.0949 18.5811 35.1141C18.6721 35.2051 18.7915 35.2508 18.911 35.2508C19.0305 35.2508 19.1499 35.2051 19.2409 35.1141C19.4234 34.9316 19.4234 34.6367 19.2409 34.4542C18.3977 33.611 17.9333 32.4882 17.9333 31.2921C17.9333 30.096 18.3977 28.9728 19.2409 28.13C19.4229 27.9475 19.4229 27.6526 19.2409 27.4701Z" fill="#55BC7E"/>
<path d="M20.8757 34.1887C20.9951 34.1887 21.1146 34.143 21.2056 34.052C21.3881 33.8695 21.3881 33.5746 21.2056 33.3921C20.0119 32.1984 20.0119 30.2566 21.2056 29.0633C21.3881 28.8809 21.3881 28.5859 21.2056 28.4035C21.0231 28.221 20.7282 28.221 20.5457 28.4035C18.9885 29.9607 18.9885 32.4952 20.5457 34.052C20.6367 34.1435 20.7562 34.1887 20.8757 34.1887Z" fill="#55BC7E"/>
<path d="M43.4189 27.4701C43.2365 27.2876 42.9415 27.2876 42.7591 27.4701C42.5766 27.6526 42.5766 27.9475 42.7591 28.13C43.6023 28.9732 44.0667 30.096 44.0667 31.2921C44.0667 32.4882 43.6023 33.611 42.7591 34.4542C42.5766 34.6367 42.5766 34.9316 42.7591 35.1141C42.8501 35.2051 42.9695 35.2508 43.089 35.2508C43.2085 35.2508 43.3279 35.2051 43.4189 35.1141C44.4386 34.0949 45 32.7374 45 31.2921C45 29.8468 44.4386 28.4898 43.4189 27.4701Z" fill="#55BC7E"/>
<path d="M40.7944 28.4035C40.6119 28.5859 40.6119 28.8809 40.7944 29.0633C41.9881 30.2571 41.9881 32.1989 40.7944 33.3921C40.6119 33.5746 40.6119 33.8695 40.7944 34.052C40.8854 34.143 41.0049 34.1887 41.1243 34.1887C41.2438 34.1887 41.3633 34.143 41.4543 34.052C43.0115 32.4947 43.0115 29.9603 41.4543 28.4035C41.2718 28.221 40.9764 28.221 40.7944 28.4035Z" fill="#55BC7E"/>
</svg>
