<svg width="62" height="74" viewBox="0 0 62 74" fill="none" xmlns="http://www.w3.org/2000/svg">
<path fill-rule="evenodd" clip-rule="evenodd" d="M52.467 52.034C57.8793 46.5131 61.2165 38.9504 61.2165 30.6083C61.2165 13.7038 47.5128 0 30.6083 0C13.7038 0 0 13.7038 0 30.6083C0 39.6601 3.92922 47.7941 10.1751 53.3979L30.6083 74L52.5742 52.034H52.467Z" fill="url(#paint0_linear_1_2171)"/>
<path d="M25.8909 24.9591L23.2219 29.1456C23.2205 29.1479 23.2196 29.1502 23.2184 29.1525C23.2081 29.1691 23.1986 29.186 23.1903 29.2038C23.1889 29.207 23.1872 29.2098 23.1857 29.213C23.1768 29.2334 23.1691 29.2543 23.1628 29.2758C23.1619 29.2787 23.1613 29.2813 23.1605 29.2839C23.1553 29.3025 23.1513 29.3214 23.1484 29.3404C23.1476 29.3455 23.1467 29.3507 23.1459 29.3559C23.143 29.3777 23.1416 29.3998 23.1413 29.4221V37.8903C23.1418 38.512 23.6456 39.0158 24.2673 39.0164H37.7327C38.3544 39.0158 38.8582 38.512 38.8588 37.8903V29.4224C38.8588 29.4001 38.8571 29.378 38.8542 29.3562C38.8533 29.351 38.8525 29.3458 38.8516 29.3404C38.8487 29.3214 38.8447 29.3028 38.8396 29.2841C38.8387 29.2816 38.8381 29.2787 38.8375 29.2761C38.8309 29.2546 38.8232 29.2336 38.8143 29.2133C38.8129 29.2101 38.8112 29.207 38.8097 29.2038C38.8014 29.1863 38.7919 29.1691 38.7819 29.1525C38.7805 29.1504 38.7796 29.1482 38.7782 29.1459L36.1091 24.9594C35.9031 24.6344 35.5448 24.4375 35.1598 24.4387H26.8403C26.4555 24.4375 26.0969 24.6341 25.8909 24.9591ZM26.7576 25.512C26.7754 25.4836 26.8067 25.4667 26.84 25.4667H30.4859V28.9083H24.593L26.7576 25.512ZM32.5378 37.9881H29.462V32.3959L32.5381 33.6858L32.5378 37.9881ZM37.7321 37.9881H33.5663V33.3438C33.5663 33.1366 33.4421 32.9499 33.251 32.8698L29.1466 31.1487C28.988 31.0821 28.8064 31.0996 28.6632 31.1949C28.5198 31.2901 28.4337 31.4508 28.4337 31.623V37.9881H24.2673C24.2134 37.9881 24.1695 37.9442 24.1695 37.8903V29.9366H37.8305V37.8903C37.8305 37.9442 37.7866 37.9881 37.7327 37.9881H37.7321ZM35.2424 25.512L37.4074 28.9083H31.5141V25.4667H35.1598C35.1933 25.4667 35.2243 25.4836 35.2424 25.512Z" fill="white"/>
<path d="M43.7277 21.8073L31.0666 15.0605C30.9136 14.9788 30.7297 14.9799 30.5777 15.0634L18.2671 21.8101C18.1024 21.9002 18 22.0732 18 22.2609V31.0739C18.0075 38.2716 22.2719 44.7834 28.8669 47.6673L30.5757 48.4121C30.7059 48.4689 30.8543 48.4692 30.9848 48.4126L32.9102 47.5812C39.6285 44.7601 43.9994 38.1849 44 30.8986V22.2609C44 22.0709 43.8953 21.8965 43.7277 21.8073ZM42.9718 30.8986C42.9706 37.7724 38.8464 43.9746 32.5085 46.6347L32.5048 46.6362L30.782 47.3804L29.2786 46.7251C23.058 44.0053 19.0354 37.863 19.0282 31.0739V22.5656L30.8281 16.0985L42.9718 22.5696V30.8986Z" fill="white"/>
<defs>
<linearGradient id="paint0_linear_1_2171" x1="30.6083" y1="0" x2="30.6083" y2="74" gradientUnits="userSpaceOnUse">
<stop stop-color="#55BC7E"/>
<stop offset="1" stop-color="#87E7AD"/>
</linearGradient>
</defs>
</svg>
