<svg width="98" height="98" viewBox="0 0 98 98" fill="none" xmlns="http://www.w3.org/2000/svg">
<path fill-rule="evenodd" clip-rule="evenodd" d="M75.2225 43.7536C75.1443 35.8836 72.1027 28.0375 66.0979 22.0326C53.9296 9.86434 34.2009 9.86434 22.0326 22.0326C9.86434 34.2009 9.86434 53.9296 22.0326 66.0979C28.5484 72.6136 37.232 75.6404 45.7618 75.1781L75.2997 75.2997L75.2997 43.6764L75.2225 43.7536Z" fill="url(#paint0_linear_4_1)"/>
<path d="M58.059 33.9946C57.4645 33.3978 56.6558 33.0631 55.8133 33.0653H55.8112L34.1756 33.0787C32.4214 33.0819 31.0008 34.5044 31 36.2586L31.009 50.8552C31.0103 52.6094 32.4325 54.0308 34.1867 54.0308H34.1888L41.311 54.0263L44.1974 58.7971C44.1995 58.8003 44.2013 58.8035 44.2032 58.8066C44.3577 59.0501 44.6263 59.1975 44.915 59.197H44.9155C45.2042 59.1975 45.4727 59.0496 45.627 58.8056C45.6288 58.8027 45.6309 58.7995 45.6328 58.7963L48.5134 54.0218L55.8244 54.0173C57.5794 54.0163 59.0013 52.5927 59 50.8377L58.991 36.2411C58.9929 35.3978 58.6572 34.5889 58.059 33.9946ZM55.8239 53.0708L48.2459 53.0753C48.08 53.0755 47.9266 53.1621 47.841 53.304L44.9147 58.154L41.9826 53.3077C41.8968 53.1661 41.7433 53.0795 41.5774 53.0795L34.1886 53.084H34.1872C32.9554 53.084 31.9569 52.0859 31.9561 50.8544L31.9468 36.2578C31.9476 35.026 32.9449 34.0274 34.1767 34.0253L55.8122 34.0115H55.8136C57.0448 34.0131 58.0426 35.0104 58.0447 36.2414L58.054 50.838C58.0532 52.0698 57.0557 53.0687 55.8239 53.0708Z" fill="white"/>
<path d="M53.6204 46.3337H36.3796C36.1181 46.3337 35.9063 46.5455 35.9063 46.807C35.9063 47.0684 36.1181 47.2802 36.3796 47.2802H53.6204C53.8819 47.2802 54.0937 47.0684 54.0937 46.807C54.0937 46.5455 53.8819 46.3337 53.6204 46.3337Z" fill="white"/>
<path d="M53.6204 42.9531H36.3796C36.1181 42.9531 35.9063 43.1649 35.9063 43.4263C35.9063 43.6878 36.1181 43.8996 36.3796 43.8996H53.6204C53.8819 43.8996 54.0937 43.6878 54.0937 43.4263C54.0937 43.1649 53.8819 42.9531 53.6204 42.9531Z" fill="white"/>
<path d="M53.6204 39.5725H36.3796C36.1181 39.5725 35.9063 39.7843 35.9063 40.0458C35.9063 40.3073 36.1181 40.5191 36.3796 40.5191H53.6204C53.8819 40.5191 54.0937 40.3073 54.0937 40.0458C54.0937 39.7843 53.8819 39.5725 53.6204 39.5725Z" fill="white"/>
<defs>
<linearGradient id="paint0_linear_4_1" x1="22.0326" y1="22.0326" x2="75.2997" y2="75.2997" gradientUnits="userSpaceOnUse">
<stop stop-color="#56BD7F"/>
<stop offset="1" stop-color="#82E2A8"/>
</linearGradient>
</defs>
</svg>
