<svg width="98" height="98" viewBox="0 0 98 98" fill="none" xmlns="http://www.w3.org/2000/svg">
<path fill-rule="evenodd" clip-rule="evenodd" d="M75.2225 43.7535C75.1443 35.8835 72.1027 28.0374 66.0979 22.0326C53.9296 9.86428 34.2009 9.86428 22.0326 22.0326C9.86434 34.2008 9.86434 53.9295 22.0326 66.0978C28.5484 72.6136 37.232 75.6403 45.7618 75.1781L75.2997 75.2996L75.2997 43.6764L75.2225 43.7535Z" fill="url(#paint0_linear_7_2913)"/>
<path d="M43.9998 38.259C40.2828 38.259 37.2591 41.2827 37.2591 44.9996C37.2591 48.7166 40.2828 51.7403 43.9998 51.7403C47.7167 51.7403 50.7404 48.7166 50.7404 44.9996C50.7404 41.2827 47.7167 38.259 43.9998 38.259ZM43.9998 50.7773C40.8139 50.7773 38.2221 48.1856 38.2221 44.9996C38.2221 41.8137 40.8139 39.222 43.9998 39.222C47.1857 39.222 49.7774 41.8137 49.7774 44.9996C49.7774 48.1856 47.1857 50.7773 43.9998 50.7773Z" fill="white"/>
<path d="M55.661 42.1109H54.6894C54.4415 41.1903 54.077 40.3093 53.6013 39.4835L54.2879 38.7969C54.5406 38.5442 54.6798 38.2076 54.6798 37.8504C54.6798 37.4926 54.5406 37.1566 54.2879 36.9033L52.0957 34.7112C51.5902 34.2061 50.7086 34.2051 50.2021 34.7112L49.5155 35.3978C48.6893 34.9225 47.8087 34.5581 46.8886 34.3101V33.3385C46.8886 32.6004 46.2882 32 45.5501 32H42.4494C41.7113 32 41.1109 32.6004 41.1109 33.3385V34.3101C40.1908 34.5581 39.3102 34.9225 38.4835 35.3982L37.7969 34.7117C37.2909 34.2051 36.4089 34.2061 35.9033 34.7117L33.7112 36.9038C33.4584 37.1566 33.3193 37.4931 33.3193 37.8509C33.3193 38.2081 33.4584 38.5442 33.7112 38.7974L34.3978 39.484C33.9225 40.3093 33.5576 41.1903 33.3101 42.1109H32.3385C31.6004 42.1109 31 42.7113 31 43.4494V46.5496C31 47.2882 31.6004 47.8886 32.3385 47.8886H33.3101C33.5581 48.8087 33.9225 49.6893 34.3982 50.516L33.7117 51.2026C33.4589 51.4553 33.3197 51.7919 33.3197 52.1491C33.3197 52.5069 33.4589 52.8429 33.7117 53.0962L35.9038 55.2883C36.4093 55.7944 37.2914 55.7949 37.7974 55.2883L38.484 54.6018C39.3107 55.077 40.1913 55.4419 41.1114 55.6899V56.6615C41.1114 57.3996 41.7118 58 42.4499 58H45.5501C46.2882 58 46.8886 57.3996 46.8886 56.6615V55.6899C47.8087 55.4419 48.6893 55.0775 49.516 54.6018L50.2026 55.2883C50.7091 55.7949 51.5902 55.7939 52.0962 55.2883L54.2883 53.0962C54.5411 52.8434 54.6803 52.5069 54.6803 52.1491C54.6803 51.7919 54.5411 51.4558 54.2883 51.2026L53.6018 50.516C54.077 49.6893 54.4419 48.8087 54.6899 47.8886H55.6615C56.3996 47.8886 57 47.2882 57 46.5501V43.4494C56.9995 42.7113 56.3991 42.1109 55.661 42.1109ZM56.0366 46.5501C56.0366 46.7571 55.8681 46.9256 55.661 46.9256H53.9316L53.8449 47.2978C53.5941 48.3749 53.1713 49.397 52.5868 50.3364L52.3846 50.6609L53.6071 51.8834C53.7539 52.0302 53.7539 52.2686 53.6071 52.4149L51.4149 54.6071C51.2686 54.7534 51.0302 54.7544 50.8834 54.6071L49.6609 53.3846L49.3364 53.5868C48.3975 54.1713 47.3754 54.5945 46.2978 54.8449L45.9256 54.9316V56.661C45.9256 56.8681 45.7571 57.0366 45.5501 57.0366H42.4494C42.2424 57.0366 42.0739 56.8681 42.0739 56.661V54.9316L41.7017 54.8449C40.6246 54.5941 39.6025 54.1713 38.6631 53.5868L38.3386 53.3846L37.1161 54.6071C36.9688 54.7544 36.7305 54.7534 36.5846 54.6071L34.3925 52.4149C34.2456 52.2681 34.2456 52.0297 34.3925 51.8834L35.6149 50.6609L35.4127 50.3364C34.8282 49.3975 34.405 48.3754 34.1546 47.2978L34.0679 46.9256H32.3385C32.1315 46.9256 31.9629 46.7571 31.9629 46.5501V43.4494C31.9629 43.2424 32.1315 43.0739 32.3385 43.0739H34.0679L34.1546 42.7017C34.4055 41.6242 34.8282 40.602 35.4127 39.6631L35.6149 39.3386L34.3925 38.1161C34.2456 37.9693 34.2456 37.731 34.3925 37.5846L36.5846 35.3925C36.731 35.2461 36.9693 35.2451 37.1161 35.3925L38.3386 36.6149L38.6631 36.4127C39.602 35.8282 40.6242 35.405 41.7017 35.1546L42.0739 35.0679V33.3385C42.0739 33.1315 42.2424 32.9629 42.4494 32.9629H45.5496C45.7571 32.9629 45.9256 33.1315 45.9256 33.3385V35.0679L46.2978 35.1546C47.3749 35.4055 48.397 35.8282 49.3364 36.4127L49.6609 36.6149L50.8834 35.3925C51.0307 35.2451 51.269 35.2461 51.4149 35.3925L53.6071 37.5846C53.7539 37.7314 53.7539 37.9698 53.6071 38.1161L52.3846 39.3386L52.5868 39.6631C53.1713 40.6015 53.5945 41.6237 53.8449 42.7017L53.9316 43.0739H55.661C55.8681 43.0739 56.0366 43.2424 56.0366 43.4494V46.5501Z" fill="white"/>
<path d="M43.9998 40.1851C41.3449 40.1851 39.185 42.3449 39.185 44.9998C39.185 47.6546 41.3449 49.8145 43.9998 49.8145C46.6546 49.8145 48.8145 47.6546 48.8145 44.9998C48.8145 42.3449 46.6546 40.1851 43.9998 40.1851ZM43.9998 48.8516C41.876 48.8516 40.148 47.1236 40.148 44.9998C40.148 42.876 41.876 41.148 43.9998 41.148C46.1235 41.148 47.8515 42.876 47.8515 44.9998C47.8515 47.1236 46.1235 48.8516 43.9998 48.8516Z" fill="white"/>
<defs>
<linearGradient id="paint0_linear_7_2913" x1="22.0326" y1="22.0326" x2="75.2997" y2="75.2997" gradientUnits="userSpaceOnUse">
<stop stop-color="#56BD7F"/>
<stop offset="1" stop-color="#82E2A8"/>
</linearGradient>
</defs>
</svg>
