<svg width="98" height="98" viewBox="0 0 98 98" fill="none" xmlns="http://www.w3.org/2000/svg">
<path fill-rule="evenodd" clip-rule="evenodd" d="M75.2225 43.7535C75.1443 35.8835 72.1027 28.0374 66.0979 22.0326C53.9296 9.86428 34.2009 9.86428 22.0326 22.0326C9.86434 34.2008 9.86434 53.9295 22.0326 66.0978C28.5484 72.6136 37.232 75.6403 45.7618 75.1781L75.2997 75.2996L75.2997 43.6764L75.2225 43.7535Z" fill="url(#paint0_linear_7_2090)"/>
<path d="M49.458 33H38.542C37.4898 33 36.6331 33.8567 36.6331 34.9089V57.0915C36.6331 58.1441 37.4898 59.0009 38.542 59.0009H49.4576C50.5102 59.0009 51.3669 58.1441 51.3669 57.092V34.9089C51.3669 33.8567 50.5102 33 49.458 33ZM37.4998 36.4668H50.5002V52.934H37.4998V36.4668ZM38.542 33.8667H49.4576C50.0326 33.8667 50.5002 34.3343 50.5002 34.9089V35.6001H37.4998V34.9089C37.4998 34.3343 37.9674 33.8667 38.542 33.8667ZM49.458 58.1342H38.542C37.9674 58.1342 37.4998 57.6666 37.4998 57.092V53.8007H50.5002V57.092C50.5002 57.6666 50.0326 58.1342 49.458 58.1342Z" fill="white"/>
<path d="M44 54.234C43.044 54.234 42.2666 55.0114 42.2666 55.9674C42.2666 56.9234 43.044 57.7008 44 57.7008C44.956 57.7008 45.7334 56.9234 45.7334 55.9674C45.7334 55.0114 44.956 54.234 44 54.234ZM44 56.8341C43.522 56.8341 43.1333 56.4454 43.1333 55.9674C43.1333 55.4894 43.522 55.1007 44 55.1007C44.478 55.1007 44.8667 55.4894 44.8667 55.9674C44.8667 56.4454 44.478 56.8341 44 56.8341Z" fill="white"/>
<path d="M42.2666 35.1667H44C44.2397 35.1667 44.4334 34.973 44.4334 34.7334C44.4334 34.4938 44.2397 34.3 44 34.3H42.2666C42.027 34.3 41.8333 34.4938 41.8333 34.7334C41.8333 34.973 42.027 35.1667 42.2666 35.1667Z" fill="white"/>
<path d="M45.3001 35.1667H45.7334C45.9731 35.1667 46.1668 34.973 46.1668 34.7334C46.1668 34.4938 45.9731 34.3 45.7334 34.3H45.3001C45.0604 34.3 44.8667 34.4938 44.8667 34.7334C44.8667 34.973 45.0604 35.1667 45.3001 35.1667Z" fill="white"/>
<path d="M55.5323 34.9799C55.3628 34.8104 55.089 34.8104 54.9195 34.9799C54.7501 35.1493 54.7501 35.4232 54.9195 35.5926C56.5385 37.2116 56.5385 39.8459 54.9195 41.4653C54.7501 41.6348 54.7501 41.9087 54.9195 42.0781C55.004 42.1626 55.115 42.2051 55.2259 42.2051C55.3368 42.2051 55.4478 42.1626 55.5323 42.0781C57.4893 40.1215 57.4893 36.9369 55.5323 34.9799Z" fill="white"/>
<path d="M53.7074 35.9662C53.538 35.7968 53.2641 35.7968 53.0947 35.9662C52.9252 36.1356 52.9252 36.4095 53.0947 36.5789C53.6307 37.115 53.9258 37.8292 53.9258 38.5892C53.9258 39.3493 53.6307 40.0631 53.0947 40.5991C52.9252 40.7686 52.9252 41.0424 53.0947 41.2119C53.1792 41.2964 53.2901 41.3388 53.401 41.3388C53.512 41.3388 53.6229 41.2964 53.7074 41.2119C54.4073 40.5124 54.7925 39.5807 54.7925 38.5892C54.7925 37.5977 54.4077 36.6656 53.7074 35.9662Z" fill="white"/>
<path d="M33.0805 35.5926C33.2499 35.4232 33.2499 35.1493 33.0805 34.9799C32.9111 34.8104 32.6372 34.8104 32.4677 34.9799C30.5108 36.9369 30.5108 40.1211 32.4677 42.0781C32.5523 42.1626 32.6632 42.2051 32.7741 42.2051C32.8851 42.2051 32.996 42.1626 33.0805 42.0781C33.2499 41.9087 33.2499 41.6348 33.0805 41.4653C31.4611 39.8464 31.4611 37.212 33.0805 35.5926Z" fill="white"/>
<path d="M34.9053 35.8467C34.7359 35.6772 34.462 35.6772 34.2926 35.8467C33.5927 36.5461 33.2075 37.4778 33.2075 38.4693C33.2075 39.4608 33.5927 40.3925 34.2926 41.0924C34.3771 41.1769 34.488 41.2193 34.5989 41.2193C34.7099 41.2193 34.8208 41.1769 34.9053 41.0924C35.0748 40.9229 35.0748 40.649 34.9053 40.4796C34.3693 39.9436 34.0742 39.2294 34.0742 38.4693C34.0742 37.7092 34.3688 36.9955 34.9053 36.4594C35.0743 36.2904 35.0743 36.0161 34.9053 35.8467Z" fill="white"/>
<defs>
<linearGradient id="paint0_linear_7_2090" x1="22.0326" y1="22.0326" x2="75.2997" y2="75.2997" gradientUnits="userSpaceOnUse">
<stop stop-color="#56BD7F"/>
<stop offset="1" stop-color="#82E2A8"/>
</linearGradient>
</defs>
</svg>
