<svg width="62" height="74" viewBox="0 0 62 74" fill="none" xmlns="http://www.w3.org/2000/svg">
<path fill-rule="evenodd" clip-rule="evenodd" d="M52.467 52.034C57.8793 46.5131 61.2165 38.9504 61.2165 30.6083C61.2165 13.7038 47.5128 0 30.6083 0C13.7038 0 0 13.7038 0 30.6083C0 39.6601 3.92922 47.7941 10.1751 53.3979L30.6083 74L52.5742 52.034H52.467Z" fill="url(#paint0_linear_1_2157)"/>
<path d="M32.2175 42.8452H29.3773C29.121 42.8452 28.9135 43.053 28.9135 43.3089C28.9135 43.5652 29.121 43.7727 29.3773 43.7727H32.2175C32.4737 43.7727 32.6813 43.5652 32.6813 43.3089C32.6813 43.053 32.4737 42.8452 32.2175 42.8452Z" fill="white"/>
<path d="M42.449 22.5507C42.4469 22.53 42.4433 22.5093 42.4384 22.4891C42.4374 22.4853 42.4366 22.4811 42.4355 22.4775C42.4301 22.4573 42.4236 22.4374 42.4156 22.418C42.4073 22.3988 42.3978 22.3799 42.3871 22.3618C42.3848 22.3582 42.3828 22.3543 42.3804 22.3507C42.3696 22.3331 42.3574 22.316 42.3442 22.3C42.3432 22.2987 42.3419 22.2976 42.3411 22.2963C42.3279 22.2811 42.3137 22.2666 42.2986 22.2531C42.2968 22.2516 42.2953 22.2495 42.2935 22.2479L38.8955 19.2622V18.6248C38.8937 17.0829 37.6439 15.8337 36.102 15.8319H25.4925C23.9506 15.8337 22.7011 17.0832 22.6993 18.6251V19.2449L19.1621 22.2425C19.058 22.331 18.9982 22.4612 18.9993 22.5981C18.9993 22.6048 18.9982 22.6113 18.9982 22.618V24.8998C18.9982 24.9718 19.0151 25.0427 19.0472 25.1071L19.0505 25.1138C19.7363 26.4378 21.2904 27.0579 22.6993 26.5693V43.6475C22.7013 45.1894 23.9508 46.4383 25.4925 46.4402H36.102C37.6442 46.4383 38.8937 45.1889 38.8955 43.647V26.6159C40.2736 27.0168 41.7425 26.3858 42.4006 25.1102C42.434 25.045 42.4513 24.9728 42.4513 24.8996V22.5963C42.4513 22.5828 42.4506 22.5696 42.4493 22.5564C42.4493 22.5544 42.4493 22.5525 42.449 22.5507ZM25.4925 16.7594H36.102C37.132 16.7607 37.9667 17.5951 37.968 18.6251V18.9962H23.6268V18.6251C23.6281 17.5951 24.4627 16.7607 25.4925 16.7594ZM23.3331 19.9232H38.1214C38.1918 19.9868 38.2801 20.0272 38.3743 20.0389L40.757 22.1325H20.7265L23.3331 19.9232ZM36.102 45.5126H25.4925C24.4627 45.5113 23.6281 44.677 23.6268 43.647V41.0668H37.968V43.6472C37.9667 44.677 37.132 45.5113 36.102 45.5126ZM37.968 40.139H23.6268V26.0473C23.749 25.9464 23.8626 25.8356 23.9671 25.7166C24.537 26.3633 25.3574 26.7336 26.2194 26.7336C27.0812 26.7336 27.9016 26.3633 28.4715 25.7166C29.0403 26.3651 29.8617 26.736 30.724 26.7342C31.5866 26.736 32.4077 26.3651 32.9766 25.7168C33.5467 26.3636 34.3671 26.7342 35.2291 26.7342C36.0914 26.7342 36.9118 26.3636 37.4817 25.7168C37.6271 25.8822 37.7902 26.031 37.968 26.1607V40.139ZM39.735 25.8077C38.9586 25.8157 38.2454 25.3817 37.8952 24.6889C37.816 24.5341 37.6569 24.4366 37.483 24.4363C37.3091 24.4361 37.1496 24.5328 37.0697 24.6873C36.7138 25.3755 36.0037 25.8074 35.2291 25.8072C34.4545 25.8072 33.7447 25.3747 33.3888 24.6866C33.3091 24.5326 33.1502 24.4361 32.9768 24.4361C32.8034 24.4363 32.6443 24.5331 32.5646 24.6871C32.2087 25.375 31.4988 25.8072 30.7245 25.8072C29.95 25.8072 29.2401 25.375 28.8842 24.6871C28.8814 24.6817 28.8783 24.6757 28.8752 24.6705C28.7911 24.5228 28.6329 24.4327 28.4629 24.4361C28.2929 24.4394 28.1384 24.5354 28.0602 24.6866C27.7044 25.3744 26.9945 25.8066 26.2199 25.8066C25.4454 25.8066 24.7355 25.3744 24.3796 24.6866C24.2999 24.5326 24.1408 24.4361 23.9676 24.4361C23.794 24.4363 23.6351 24.5331 23.5554 24.6871C23.2083 25.3581 22.5236 25.7872 21.7684 25.8069C21.0132 25.8266 20.3072 25.4337 19.9258 24.7815V23.06H41.5238V24.7813C41.1579 25.4226 40.4734 25.8154 39.735 25.8077Z" fill="white"/>
<path d="M31.9023 31.9269L30.1963 33.3148L29.6068 32.6249C29.4997 32.497 29.3322 32.4367 29.1684 32.4665C29.0043 32.4962 28.869 32.6119 28.8139 32.7693C28.7585 32.9266 28.7921 33.1013 28.9016 33.2271L29.7849 34.2617C29.9484 34.4532 30.2349 34.4791 30.4303 34.3202L32.4877 32.6466C32.6865 32.4848 32.7165 32.1927 32.5548 31.9942C32.3933 31.7954 32.1011 31.7654 31.9023 31.9271V31.9269Z" fill="white"/>
<path d="M30.7248 28.6847C28.2732 28.6847 26.2859 30.672 26.2859 33.1236C26.2859 35.5751 28.2732 37.5624 30.7248 37.5624C33.1764 37.5624 35.1636 35.5751 35.1636 33.1236C35.1608 30.6733 33.1751 28.6875 30.7248 28.6847ZM30.7248 36.6349C28.7856 36.6349 27.2134 35.0627 27.2134 33.1236C27.2134 31.1844 28.7856 29.6122 30.7248 29.6122C32.6639 29.6122 34.2361 31.1844 34.2361 33.1236C34.2341 35.0619 32.6632 36.6328 30.7248 36.6349Z" fill="white"/>
<defs>
<linearGradient id="paint0_linear_1_2157" x1="30.6083" y1="0" x2="30.6083" y2="74" gradientUnits="userSpaceOnUse">
<stop stop-color="#55BC7E"/>
<stop offset="1" stop-color="#87E7AD"/>
</linearGradient>
</defs>
</svg>
